<?xml version="1.0" encoding="utf-8"?>
<!-- Generator: Adobe Illustrator 26.3.1, SVG Export Plug-In . SVG Version: 6.00 Build 0)  -->
<svg version="1.1" id="レイヤー_1" xmlns="http://www.w3.org/2000/svg" xmlns:xlink="http://www.w3.org/1999/xlink" x="0px"
	 y="0px" width="283.465px" height="90.709px" viewBox="0 0 283.465 90.709" style="enable-background:new 0 0 283.465 90.709;"
	 xml:space="preserve">
<style type="text/css">
	.st0{fill:#0090BC;}
</style>
<g>
	<path class="st0" d="M196.557,2.105h-54.539c0,0-0.511,1.98-0.729,4.789c-0.322,4.166-0.245,7.247,0.088,9.881
		c1.458-0.218,3.318-0.463,7.601-0.719c3.756-0.225,5.752-0.224,7.371-0.131c2.471,0.142,4.282,1.887,4.477,4.348
		c0.094,1.19,0.134,2.082,0.134,3.584c0,3.131,0,64.746,0,64.746c1.08,0.285,4.114,0.806,8.118,0.806
		c4.004,0,7.038-0.521,8.118-0.806c0,0,0-61.615,0-64.746c0-1.502,0.04-2.394,0.134-3.584c0.194-2.461,2.005-4.205,4.477-4.348
		c1.619-0.093,3.723-0.094,7.481,0.131c4.286,0.257,6.694,0.501,8.155,0.719c0.388-1.718,0.478-6.535-0.026-10.149
		C197.027,3.831,196.557,2.105,196.557,2.105z"/>
	<path class="st0" d="M107.112,2.105v86.498c1.08,0.285,4.114,0.804,8.118,0.804s7.038-0.52,8.118-0.804V2.105
		c-1.08-0.285-4.114-0.804-8.118-0.804S108.193,1.82,107.112,2.105z"/>
	<path class="st0" d="M69.107,40.2c-4.697-0.477-7.266-0.487-11.81-0.487c-2.749,0-4.749-0.003-7.728,0.024
		c-0.475,0.972-1.353,3.703-1.353,7.306c0,3.603,0.878,6.334,1.353,7.306v0h3.862c4.792,0,9.26-0.076,11.951,0.172
		c2.291,0.21,4.124,2.253,4.392,4.258c0.268,1.967,0.296,1.815,0.282,4.13c-0.015,2.412-0.09,3.765-0.374,5.112
		c-0.378,1.8-1.584,3.188-3.13,4.162c-1.47,0.916-3.017,1.585-4.583,2.081c-2.31,0.726-6.098,1.267-8.792,1.493
		c-20.302,1.703-36.992-9.699-36.992-30.128c0-17.73,14.86-30.994,33.208-30.994c7.847,0,15.713,2.542,21.365,7.028
		c1.004-0.065,4.385-1.652,7.387-3.964c2.397-1.846,4.865-4.244,5.167-5.157c-0.319-0.326-0.458-0.496-0.707-0.726
		C75.368,4.888,62.879-0.007,49.561,0C19.753,0.017-1.381,22.166,0.07,48.743c0.897,16.496,10.511,28.639,22.348,35.55
		c8.802,5.136,19.265,6.759,29.517,6.358c9.928-0.401,20.798-3.265,30.02-8.42l3.254-1.78c0.191-2.864,0.376-6.022,0.473-10.165
		c0.092-3.99,0.197-9.724-0.127-13.561C84.924,48.935,77.871,41.098,69.107,40.2z"/>
	<path class="st0" d="M273.504,1.301c-4.913,0-8.635,0.528-9.96,0.81h-0.002c-0.23,0.417-0.827,1.508-1.285,2.348
		c-3.78,6.911-7.388,13.575-13.766,25.737c-1.947,3.723-3.847,7.721-5.356,11.371c-1.173-2.8-2.463-5.538-3.897-8.411
		c-7.188-14.366-9.865-19.551-13.849-26.864c-0.842-1.545-1.872-3.366-2.321-4.181l-0.001-0.006
		c-1.319-0.282-5.022-0.804-9.911-0.804c-4.888,0-8.591,0.522-9.911,0.804c2.725,4.716,6.609,11.396,10.919,18.831
		c8.349,14.376,12.999,22.429,15.824,28.351c3.171,6.628,4.987,11.955,5.159,19.439c0.133,5.46,0.097,8.646,0.097,14.126v5.842
		l-0.007-0.091c1.081,0.285,4.114,0.804,8.118,0.804c4.004,0,7.038-0.519,8.118-0.804l-0.007,0.091v-5.842
		c0-5.48-0.036-8.665,0.097-14.126c0.172-7.484,1.988-12.811,5.159-19.439c2.825-5.922,7.475-13.975,15.824-28.351
		c4.31-7.435,8.194-14.11,10.919-18.826C282.139,1.828,278.417,1.301,273.504,1.301z"/>
</g>
</svg>
